<svg width="29" height="35" viewBox="0 0 29 35" fill="none" xmlns="http://www.w3.org/2000/svg">
<path d="M14.1667 0C17.9239 0 21.5273 1.49256 24.184 4.14932C26.8408 6.80609 28.3333 10.4094 28.3333 14.1667C28.3333 25 19.1667 34.1667 14.1667 34.1667C9.16667 34.1667 0 25 0 14.1667C0 10.4094 1.49256 6.80609 4.14932 4.14932C6.80609 1.49256 10.4094 0 14.1667 0V0ZM14.1667 3.33333C11.2935 3.33333 8.53799 4.4747 6.50634 6.50634C4.4747 8.53799 3.33333 11.2935 3.33333 14.1667C3.33333 22.1567 10.275 30.8333 14.1667 30.8333C18.0583 30.8333 25 22.1567 25 14.1667C25 11.2935 23.8586 8.53799 21.827 6.50634C19.7953 4.4747 17.0398 3.33333 14.1667 3.33333V3.33333ZM23.3333 15C23.6 15 23.865 15.0133 24.125 15.0417C24.2431 16.154 24.1109 17.2787 23.7381 18.3334C23.3652 19.388 22.7612 20.3459 21.9702 21.1369C21.1793 21.9279 20.2214 22.5319 19.1667 22.9047C18.1121 23.2776 16.9874 23.4098 15.875 23.2917C15.764 22.2458 15.8742 21.1883 16.1984 20.1878C16.5226 19.1874 17.0537 18.2662 17.757 17.4843C18.4603 16.7024 19.3203 16.0771 20.281 15.6491C21.2417 15.2211 22.2816 15 23.3333 15V15ZM5 15C6.05172 15 7.09168 15.2211 8.05237 15.6491C9.01306 16.0771 9.87299 16.7024 10.5763 17.4843C11.2797 18.2662 11.8107 19.1874 12.1349 20.1878C12.4592 21.1883 12.5693 22.2458 12.4583 23.2917C11.346 23.4098 10.2213 23.2776 9.16663 22.9047C8.11198 22.5319 7.15409 21.9279 6.36311 21.1369C5.57213 20.3459 4.9681 19.388 4.59526 18.3334C4.22242 17.2787 4.09022 16.154 4.20833 15.0417C4.46667 15.0133 4.73333 15 5 15Z" fill="black"/>
</svg>
