<svg width="34" height="34" viewBox="0 0 34 34" fill="none" xmlns="http://www.w3.org/2000/svg">
<path d="M30 16.6667C30 13.1304 28.5952 9.73906 26.0948 7.23858C23.5943 4.73809 20.2029 3.33333 16.6667 3.33333C13.1304 3.33333 9.73906 4.73809 7.23858 7.23858C4.73809 9.73906 3.33333 13.1304 3.33333 16.6667V23.3333H8.33333C8.77536 23.3333 9.19928 23.5089 9.51184 23.8215C9.82441 24.134 10 24.558 10 25V30H23.3333V25C23.3333 24.558 23.5089 24.134 23.8215 23.8215C24.134 23.5089 24.558 23.3333 25 23.3333H30V16.6667ZM26.6667 26.6667V31.6667C26.6667 32.1087 26.4911 32.5326 26.1785 32.8452C25.866 33.1577 25.442 33.3333 25 33.3333H8.33333C7.89131 33.3333 7.46738 33.1577 7.15482 32.8452C6.84226 32.5326 6.66667 32.1087 6.66667 31.6667V26.6667H1.66667C1.22464 26.6667 0.800716 26.4911 0.488155 26.1785C0.175595 25.866 0 25.442 0 25V16.6667C0 7.46167 7.46167 0 16.6667 0C25.8717 0 33.3333 7.46167 33.3333 16.6667V25C33.3333 25.442 33.1577 25.866 32.8452 26.1785C32.5326 26.4911 32.1087 26.6667 31.6667 26.6667H26.6667ZM9.16667 20C8.83836 20 8.51327 19.9353 8.20996 19.8097C7.90664 19.6841 7.63105 19.4999 7.3989 19.2678C7.16675 19.0356 6.9826 18.76 6.85697 18.4567C6.73133 18.1534 6.66667 17.8283 6.66667 17.5C6.66667 17.1717 6.73133 16.8466 6.85697 16.5433C6.9826 16.24 7.16675 15.9644 7.3989 15.7322C7.63105 15.5001 7.90664 15.3159 8.20996 15.1903C8.51327 15.0647 8.83836 15 9.16667 15C9.82971 15 10.4656 15.2634 10.9344 15.7322C11.4033 16.2011 11.6667 16.837 11.6667 17.5C11.6667 18.163 11.4033 18.7989 10.9344 19.2678C10.4656 19.7366 9.82971 20 9.16667 20V20ZM24.1667 20C23.8384 20 23.5133 19.9353 23.21 19.8097C22.9066 19.6841 22.631 19.4999 22.3989 19.2678C22.1668 19.0356 21.9826 18.76 21.857 18.4567C21.7313 18.1534 21.6667 17.8283 21.6667 17.5C21.6667 17.1717 21.7313 16.8466 21.857 16.5433C21.9826 16.24 22.1668 15.9644 22.3989 15.7322C22.631 15.5001 22.9066 15.3159 23.21 15.1903C23.5133 15.0647 23.8384 15 24.1667 15C24.8297 15 25.4656 15.2634 25.9344 15.7322C26.4033 16.2011 26.6667 16.837 26.6667 17.5C26.6667 18.163 26.4033 18.7989 25.9344 19.2678C25.4656 19.7366 24.8297 20 24.1667 20V20Z" fill="white"/>
</svg>
