<svg width="35" height="37" viewBox="0 0 35 37" fill="none" xmlns="http://www.w3.org/2000/svg">
<path d="M17.5 0C27.1653 0 35 7.83475 35 17.5V24.087C35 24.7371 34.8189 25.3744 34.477 25.9273C34.1352 26.4803 33.6461 26.9271 33.0645 27.2177L28 29.75V31.5C28.0001 32.8391 27.4884 34.1276 26.5698 35.102C25.6511 36.0763 24.3948 36.6627 23.058 36.7413L22.6625 36.75C22.701 36.5594 22.7267 36.3665 22.7395 36.1725L22.75 35.875V35C22.7503 34.117 22.4168 33.2665 21.8164 32.619C21.216 31.9716 20.393 31.575 19.5125 31.5087L19.25 31.5H15.75C14.867 31.4997 14.0165 31.8332 13.369 32.4336C12.7216 33.034 12.325 33.857 12.2588 34.7375L12.25 35V35.875C12.25 36.1743 12.2798 36.4683 12.3375 36.75H12.25C10.8576 36.75 9.52226 36.1969 8.53769 35.2123C7.55312 34.2277 7 32.8924 7 31.5V29.75L1.9355 27.2177C1.35369 26.927 0.864392 26.4799 0.522513 25.9266C0.180635 25.3733 -0.000302704 24.7357 3.80142e-07 24.0852V17.5C3.80142e-07 7.83475 7.83475 0 17.5 0ZM17.5 3.5C13.8628 3.50004 10.3683 4.91564 7.75652 7.44707C5.14473 9.9785 3.62067 13.427 3.507 17.0625L3.5 17.5V24.087L10.5 27.587V30.3712L10.6313 30.2242C11.8708 28.8937 13.5803 28.0989 15.3965 28.0087L15.75 28L19.3778 28.0017L19.768 28.0192C21.5163 28.1487 23.0755 28.9117 24.2305 30.079L24.5 30.3712V27.587L31.5 24.087V17.5C31.5 13.787 30.025 10.226 27.3995 7.60051C24.774 4.975 21.213 3.5 17.5 3.5V3.5ZM10.5 15.75C11.4283 15.75 12.3185 16.1187 12.9749 16.7751C13.6313 17.4315 14 18.3217 14 19.25C14 20.1783 13.6313 21.0685 12.9749 21.7249C12.3185 22.3813 11.4283 22.75 10.5 22.75C9.57174 22.75 8.6815 22.3813 8.02513 21.7249C7.36875 21.0685 7 20.1783 7 19.25C7 18.3217 7.36875 17.4315 8.02513 16.7751C8.6815 16.1187 9.57174 15.75 10.5 15.75V15.75ZM24.5 15.75C25.4283 15.75 26.3185 16.1187 26.9749 16.7751C27.6313 17.4315 28 18.3217 28 19.25C28 20.1783 27.6313 21.0685 26.9749 21.7249C26.3185 22.3813 25.4283 22.75 24.5 22.75C23.5717 22.75 22.6815 22.3813 22.0251 21.7249C21.3688 21.0685 21 20.1783 21 19.25C21 18.3217 21.3688 17.4315 22.0251 16.7751C22.6815 16.1187 23.5717 15.75 24.5 15.75V15.75Z" fill="black"/>
</svg>
